# xmcd
#
# Track frame offsets: 
#        150
#        12457
#        22489
#        33173
#        44343
#        54789
#        65399
#        77495
#        89875
#        101981
#        113407
#        125740
#        137090
#        147619
#        157238
#        167926
#        181352
#        190836
#        202669
#        213745
#
# Disc length: 3017 seconds
#
# Revision: 0
# Processed by: cddbd v1.5.1PL2 Copyright (c) Steve Scherf et al.
# Submitted via: ExactAudioCopy v0.95b4
#
DISCID=2b0bc714
DTITLE=Hank Snow - I Don't Hurt Anymore
DYEAR=2005
DGENRE=
TTITLE0=Bluebird Island (with Anita Carter)
TTITLE1=Down The Trail Of Achin' Hearts (with Anita Carter)
TTITLE2=Unwanted Sign Upon My Heart
TTITLE3=Music Makin' Mama From Memphis
TTITLE4=The Gold Rush Is Over
TTITLE5=Lady's Man
TTITLE6=Married By The Bible, Divorced By The Law
TTITLE7=I Went To Your Wedding
TTITLE8=The Gal Who Invented Kissin'
TTITLE9=(Now And Then) There's A Fool Such As I
TTITLE10=Honeymoon On A Rocket Ship
TTITLE11=Mississippi River Blues
TTITLE12=Spanish Fire Ball
TTITLE13=For Now And Always
TTITLE14=When Mexican Joe Met Jole Blon
TTITLE15=I Don't Hurt Anymore
TTITLE16=That Crazy Mambo Thing
TTITLE17=The Next Voice You Hear
TTITLE18=Let Me Go Lover
TTITLE19=Stolen Moments
EXTD=
EXTT0=
EXTT1=
EXTT2=
EXTT3=
EXTT4=
EXTT5=
EXTT6=
EXTT7=
EXTT8=
EXTT9=
EXTT10=
EXTT11=
EXTT12=
EXTT13=
EXTT14=
EXTT15=
EXTT16=
EXTT17=
EXTT18=
EXTT19=
PLAYORDER=
